<?xml version="1.0" standalone="no"?>
<!DOCTYPE svg PUBLIC "-//W3C//DTD SVG 20010904//EN"
 "http://www.w3.org/TR/2001/REC-SVG-20010904/DTD/svg10.dtd">
<svg version="1.0" xmlns="http://www.w3.org/2000/svg"
 width="1861.000000pt" height="2048.000000pt" viewBox="0 0 1861.000000 2048.000000"
 preserveAspectRatio="xMidYMid meet">

<g transform="translate(0.000000,2048.000000) scale(0.100000,-0.100000)"
fill="#000000" stroke="none">
<path d="M9167 16473 c-3 -3 -77 -9 -164 -14 -87 -5 -182 -14 -212 -19 -30 -6
-82 -10 -116 -10 -33 0 -65 -4 -71 -10 -5 -5 -47 -14 -94 -19 -145 -17 -219
-30 -239 -41 -11 -5 -33 -10 -49 -10 -16 0 -49 -7 -72 -15 -23 -8 -57 -15 -75
-15 -19 0 -35 -5 -37 -11 -2 -6 -25 -13 -51 -16 -26 -3 -50 -10 -53 -14 -3 -5
-22 -9 -43 -9 -20 0 -46 -7 -57 -15 -10 -8 -36 -15 -56 -15 -20 0 -39 -4 -43
-9 -3 -6 -26 -13 -50 -17 -25 -3 -48 -10 -50 -15 -3 -4 -26 -11 -50 -15 -25
-3 -48 -10 -51 -15 -3 -5 -17 -9 -32 -9 -15 0 -36 -7 -46 -15 -11 -8 -30 -15
-43 -15 -23 0 -29 -2 -91 -33 -19 -9 -43 -17 -55 -17 -12 0 -31 -7 -41 -15
-11 -8 -28 -15 -37 -15 -10 0 -30 -6 -46 -14 -43 -21 -75 -34 -105 -40 -16 -4
-28 -11 -28 -16 0 -6 -8 -10 -17 -10 -10 0 -43 -12 -73 -26 -30 -14 -84 -40
-120 -56 -36 -16 -74 -35 -85 -41 -92 -49 -192 -97 -202 -97 -7 0 -13 -3 -13
-7 0 -5 -19 -17 -43 -28 -23 -11 -46 -25 -50 -32 -4 -7 -15 -13 -23 -13 -9 0
-22 -6 -29 -12 -33 -30 -46 -39 -83 -58 -21 -11 -48 -29 -60 -40 -12 -11 -24
-20 -28 -20 -6 0 -74 -51 -108 -82 -18 -16 -20 -16 -42 0 -13 9 -24 20 -24 24
0 4 -21 30 -47 57 -53 55 -67 71 -132 151 -24 30 -53 64 -65 75 -12 11 -37 40
-56 65 -19 25 -40 49 -47 53 -7 4 -13 12 -13 17 0 6 -18 28 -40 50 -22 22 -40
44 -40 48 0 4 -18 27 -40 51 -22 23 -40 45 -40 48 0 2 -6 11 -14 19 -13 12
-186 14 -1233 12 l-1218 -3 3 -765 c2 -421 7 -767 12 -770 4 -3 10 -15 14 -27
4 -13 12 -23 17 -23 5 0 9 -5 9 -10 0 -6 11 -21 25 -34 14 -13 25 -26 25 -30
0 -7 39 -52 83 -97 15 -15 27 -32 27 -38 0 -6 7 -11 15 -11 8 0 15 -5 15 -11
0 -7 10 -21 23 -33 12 -11 38 -41 57 -66 19 -24 46 -56 60 -70 14 -15 41 -46
60 -70 44 -54 88 -105 120 -139 14 -15 41 -47 60 -71 49 -63 71 -88 103 -121
15 -15 27 -30 27 -33 0 -3 8 -14 18 -24 38 -41 92 -107 92 -114 0 -4 7 -8 15
-8 8 0 15 -5 15 -11 0 -6 12 -24 28 -39 15 -16 32 -35 37 -43 6 -7 18 -22 28
-34 18 -20 17 -22 -7 -48 -15 -16 -26 -32 -26 -36 0 -4 -13 -28 -30 -52 -16
-25 -30 -50 -30 -56 0 -6 -4 -11 -10 -11 -5 0 -12 -11 -16 -25 -3 -14 -10 -25
-15 -25 -5 0 -9 -6 -9 -14 0 -8 -6 -21 -13 -28 -6 -7 -34 -56 -61 -108 -26
-52 -52 -102 -56 -110 -17 -30 -40 -88 -40 -99 0 -6 -4 -11 -10 -11 -5 0 -10
-5 -10 -11 0 -12 -26 -75 -41 -99 -5 -8 -12 -22 -15 -30 -9 -24 -54 -122 -70
-153 -8 -16 -14 -37 -14 -48 0 -10 -4 -19 -9 -19 -5 0 -16 -24 -26 -52 -9 -29
-22 -66 -29 -83 -22 -51 -38 -99 -43 -125 -2 -14 -11 -38 -18 -55 -19 -45 -35
-99 -35 -121 0 -11 -7 -29 -15 -40 -8 -10 -15 -33 -15 -51 0 -17 -4 -34 -9
-38 -5 -3 -13 -30 -16 -60 -4 -30 -11 -55 -15 -55 -7 0 -24 -76 -38 -175 -4
-27 -12 -57 -17 -65 -5 -8 -13 -40 -17 -70 -4 -30 -10 -71 -14 -92 -5 -29 -2
-38 13 -45 10 -6 190 -6 438 -2 231 4 658 8 949 8 490 1 531 0 546 -16 13 -14
14 -25 7 -58 -6 -25 -6 -178 0 -401 6 -222 6 -364 0 -371 -7 -10 -56 -13 -183
-13 l-174 0 -2 243 -3 242 -825 0 -825 0 -6 -61 c-3 -33 -9 -66 -13 -72 -12
-19 -27 -329 -32 -634 -3 -153 -3 -278 -2 -279 4 0 3899 -10 3926 -10 12 1 22
-5 22 -12 0 -6 25 -38 55 -71 30 -32 55 -62 55 -67 0 -5 7 -9 15 -9 8 0 15 -6
15 -14 0 -8 4 -16 8 -18 4 -1 23 -23 42 -48 19 -24 45 -54 58 -66 12 -12 22
-26 22 -31 0 -14 -870 -23 -2170 -23 -1049 0 -1065 -1 -1080 -20 -15 -19 -30
-20 -480 -22 l-465 -3 2 -117 c1 -64 6 -125 12 -136 6 -12 11 -64 11 -116 0
-52 7 -121 15 -153 8 -31 15 -74 15 -95 0 -20 4 -39 9 -42 5 -3 12 -30 16 -61
3 -30 11 -57 16 -60 5 -4 9 -27 9 -53 0 -26 7 -56 15 -66 8 -11 15 -39 15 -62
0 -24 4 -45 9 -48 4 -3 11 -27 15 -54 3 -27 10 -52 13 -56 8 -8 31 -100 40
-158 3 -21 11 -42 19 -49 8 -6 14 -26 14 -45 0 -18 4 -36 10 -39 5 -3 10 -19
10 -34 0 -15 7 -36 15 -47 8 -10 15 -30 15 -44 0 -14 7 -38 15 -54 8 -15 15
-34 15 -41 0 -7 7 -26 15 -41 8 -16 15 -37 15 -46 0 -9 5 -20 10 -23 6 -3 10
-17 10 -29 0 -13 7 -29 15 -36 8 -7 15 -19 15 -26 0 -8 4 -22 10 -32 5 -9 19
-39 30 -67 11 -27 25 -58 30 -67 6 -10 10 -24 10 -32 0 -7 7 -19 15 -26 8 -7
15 -23 15 -36 0 -13 5 -24 10 -24 6 0 10 -5 10 -12 0 -11 53 -129 71 -158 5
-8 12 -22 15 -30 30 -72 39 -90 46 -90 4 0 8 -8 8 -18 0 -10 7 -27 15 -38 8
-10 15 -27 15 -36 0 -10 4 -18 8 -18 5 0 18 -21 30 -48 28 -59 71 -132 89
-150 7 -7 13 -18 13 -24 0 -6 11 -26 25 -44 14 -18 25 -37 25 -42 0 -5 11 -21
24 -35 14 -15 27 -36 31 -47 3 -11 11 -20 16 -20 5 0 9 -7 9 -15 0 -8 4 -15 9
-15 5 0 13 -10 17 -22 4 -13 17 -33 30 -45 13 -12 24 -28 24 -35 0 -7 10 -24
23 -38 12 -14 33 -42 46 -62 12 -21 26 -38 31 -38 4 0 10 -8 14 -17 8 -26 28
-55 53 -80 13 -12 23 -25 23 -28 0 -4 6 -13 13 -20 6 -8 23 -29 37 -46 14 -18
32 -40 40 -48 8 -9 35 -43 60 -76 25 -33 62 -76 83 -97 20 -21 37 -40 37 -43
0 -8 50 -64 123 -137 37 -37 67 -72 67 -78 0 -5 4 -10 9 -10 5 0 58 -48 118
-108 107 -105 173 -164 298 -270 11 -9 40 -33 65 -52 25 -19 47 -38 48 -42 2
-5 10 -8 18 -8 8 0 17 -7 20 -15 3 -8 14 -17 23 -20 10 -3 26 -13 37 -23 10
-9 36 -28 56 -42 21 -14 38 -28 38 -32 0 -5 7 -8 15 -8 8 0 15 -4 15 -10 0 -5
11 -12 25 -16 14 -3 25 -10 25 -14 0 -5 17 -19 37 -31 21 -13 40 -26 43 -29 3
-4 14 -10 24 -14 12 -4 16 -10 10 -16 -12 -12 -1694 -14 -1706 -2 -4 4 -9 196
-10 425 l-3 418 -504 -1 c-277 0 -507 -3 -512 -6 -12 -7 -11 -1835 1 -1854 8
-13 300 -15 2517 -17 1379 -1 2516 -3 2525 -3 17 0 18 -50 20 -857 l3 -858
494 -3 c389 -2 496 0 503 10 12 19 10 6981 -2 7013 -10 26 -54 86 -100 135
-14 15 -38 44 -55 66 -16 21 -46 55 -66 76 -20 21 -52 57 -71 80 -20 24 -52
60 -72 80 -20 20 -36 42 -36 48 0 5 -7 10 -15 10 -8 0 -15 5 -15 11 0 7 -10
21 -23 33 -12 11 -51 54 -86 95 -61 72 -76 89 -131 148 -14 15 -34 39 -46 54
-11 16 -46 56 -77 91 -113 127 -127 143 -127 154 0 6 -11 17 -25 24 -14 7 -25
17 -25 22 0 5 -11 19 -25 32 -14 13 -25 26 -25 29 0 4 -12 19 -27 35 -16 16
-53 57 -83 92 -30 35 -79 88 -107 117 -29 30 -53 57 -53 61 0 4 -32 40 -70 80
-39 40 -70 75 -70 78 0 4 -45 54 -112 126 -16 16 -28 31 -28 35 0 3 -11 16
-25 29 -14 13 -25 25 -25 28 0 2 -12 17 -27 33 -45 47 -113 125 -113 129 0 2
-25 29 -55 60 -30 31 -55 59 -55 63 0 3 -29 37 -65 74 -36 38 -65 70 -65 72 0
3 -12 17 -27 33 -16 16 -39 44 -53 62 -14 17 -44 52 -67 76 -24 25 -43 47 -43
50 0 5 -8 14 -80 92 -16 18 -30 37 -30 42 0 6 -7 10 -15 10 -8 0 -15 5 -15 11
0 6 -15 25 -33 42 -18 18 -53 57 -79 87 -25 30 -76 86 -112 124 -36 39 -66 74
-66 78 0 4 -7 8 -15 8 -8 0 -15 5 -15 11 0 11 -48 71 -114 142 -21 23 -62 72
-91 108 -29 36 -73 85 -97 110 -24 24 -59 64 -78 89 -19 25 -45 55 -57 66 -13
12 -23 26 -23 33 0 6 -7 11 -15 11 -8 0 -15 5 -15 10 0 10 -30 47 -82 102 -16
16 -28 31 -28 33 0 3 -25 30 -55 60 -30 31 -55 58 -55 61 0 3 -10 15 -22 28
-54 56 -108 116 -108 120 0 3 -19 24 -42 48 -24 24 -54 58 -68 76 -14 19 -45
55 -70 82 -76 82 -125 142 -124 151 1 5 2 15 3 22 0 6 40 53 87 102 47 50 113
121 147 158 34 38 114 122 178 187 126 129 140 135 173 79 10 -17 36 -50 59
-74 23 -24 60 -65 82 -91 22 -26 47 -55 57 -66 9 -10 30 -36 46 -56 17 -20 52
-60 79 -89 95 -103 123 -136 123 -144 0 -5 7 -9 15 -9 8 0 15 -5 15 -11 0 -6
12 -23 28 -38 15 -16 44 -49 66 -75 46 -56 109 -126 156 -175 19 -20 58 -63
85 -96 28 -33 67 -77 88 -97 20 -21 37 -41 37 -44 0 -3 11 -17 25 -32 13 -15
38 -42 55 -60 16 -18 30 -35 30 -37 0 -2 12 -17 28 -33 15 -16 45 -50 67 -77
22 -27 46 -54 53 -61 6 -7 12 -15 12 -19 0 -3 24 -29 53 -58 28 -29 64 -68 78
-87 15 -19 45 -54 68 -78 22 -24 41 -46 41 -50 0 -3 10 -16 23 -27 12 -11 45
-47 72 -80 28 -33 67 -77 88 -97 20 -21 37 -40 37 -43 0 -2 14 -19 30 -37 17
-18 42 -45 55 -60 14 -15 25 -32 25 -37 0 -6 7 -11 15 -11 8 0 15 -5 15 -11 0
-6 25 -36 55 -67 31 -30 72 -76 93 -100 20 -25 67 -76 105 -114 37 -38 67 -71
67 -73 0 -2 21 -25 46 -51 25 -26 58 -64 72 -83 15 -19 55 -63 90 -98 34 -34
62 -65 62 -67 0 -3 19 -25 43 -50 50 -52 97 -106 97 -112 0 -2 30 -34 68 -72
37 -37 78 -82 92 -101 14 -18 45 -54 70 -81 25 -26 70 -76 100 -111 108 -123
136 -153 173 -191 20 -21 37 -40 37 -43 0 -2 12 -17 28 -33 15 -15 45 -50 67
-77 22 -26 51 -60 65 -75 14 -14 36 -39 48 -55 13 -17 39 -47 58 -67 19 -20
34 -40 34 -43 0 -3 10 -16 23 -28 12 -12 38 -42 57 -67 19 -24 52 -62 73 -82
20 -21 37 -42 37 -46 0 -4 14 -16 30 -25 17 -10 30 -23 30 -29 0 -6 22 13 50
43 27 30 50 57 50 61 0 4 12 20 28 36 15 15 38 43 52 61 14 17 34 42 45 55 11
13 27 32 35 42 9 11 38 44 65 75 28 30 73 81 100 113 28 32 70 79 95 106 52
56 100 111 100 115 0 1 29 32 65 69 36 36 65 71 65 76 0 6 7 10 15 10 8 0 15
5 15 10 0 10 36 53 93 112 9 10 17 20 17 23 0 3 18 25 41 48 23 23 48 53 58
67 15 23 48 62 111 129 14 15 41 47 60 71 19 25 51 62 72 82 21 21 38 40 38
43 0 3 12 18 28 34 15 16 50 54 77 86 28 32 70 79 95 105 25 26 74 80 110 120
36 40 77 85 93 100 15 16 27 33 27 39 0 6 7 11 15 11 8 0 15 5 15 11 0 6 24
34 53 63 28 29 70 75 92 101 22 26 52 60 68 75 15 16 27 33 27 39 0 6 6 11 14
11 8 0 16 4 18 10 3 11 50 65 116 137 23 25 42 47 42 49 0 2 25 28 55 59 30
30 55 57 55 59 0 5 72 84 148 163 23 24 42 46 42 48 0 3 18 23 40 45 22 22 40
43 40 46 0 3 11 17 25 32 13 15 38 42 55 60 16 18 30 35 30 39 0 3 10 15 23
27 12 12 49 53 81 91 33 39 77 87 98 108 21 21 38 40 38 43 0 3 12 18 28 33
15 15 45 50 67 76 22 27 52 61 68 77 15 16 27 33 27 38 0 6 7 10 15 10 8 0 15
5 15 10 0 10 19 33 88 109 53 58 195 212 220 238 12 13 22 26 22 29 0 2 23 27
50 55 28 28 50 52 50 54 0 3 13 18 29 34 16 16 42 46 57 67 16 21 46 55 67 76
20 21 37 43 37 48 0 6 7 10 15 10 8 0 15 5 15 10 0 10 30 47 83 102 15 16 27
31 27 33 0 3 28 33 63 68 34 34 78 83 97 107 19 24 63 73 98 107 34 35 62 65
62 68 0 2 12 17 28 33 45 47 112 123 112 127 0 2 26 30 58 63 31 33 73 78 92
102 45 54 75 88 107 123 l26 27 509 0 c554 0 537 2 478 -56 -16 -16 -30 -33
-30 -38 0 -5 -10 -18 -22 -30 -13 -12 -39 -42 -58 -66 -19 -25 -38 -46 -42
-48 -4 -2 -8 -10 -8 -18 0 -8 -7 -14 -15 -14 -8 0 -15 -5 -15 -11 0 -6 -12
-23 -27 -38 -16 -16 -50 -54 -78 -86 -27 -32 -62 -71 -77 -86 -16 -15 -28 -32
-28 -38 0 -6 -7 -11 -15 -11 -8 0 -15 -7 -15 -15 0 -8 -7 -15 -15 -15 -8 0
-15 -5 -15 -10 0 -12 -8 -23 -67 -86 -24 -24 -43 -47 -43 -50 0 -2 -22 -27
-50 -54 -27 -27 -50 -52 -50 -55 0 -2 -14 -19 -30 -37 -17 -18 -42 -45 -55
-60 -14 -15 -25 -32 -25 -37 0 -6 -7 -11 -15 -11 -8 0 -15 -5 -15 -11 0 -6
-13 -24 -30 -41 -16 -16 -30 -33 -30 -38 0 -4 -18 -27 -40 -51 -66 -73 -74
-82 -115 -134 -22 -27 -57 -68 -78 -90 -21 -22 -53 -59 -70 -82 -17 -24 -34
-43 -39 -43 -4 0 -8 -7 -8 -15 0 -8 -7 -15 -15 -15 -8 0 -15 -4 -15 -8 0 -5
-16 -26 -35 -48 -19 -21 -35 -42 -35 -46 0 -3 -13 -20 -30 -36 -16 -17 -30
-35 -30 -41 0 -6 -7 -11 -15 -11 -8 0 -15 -5 -15 -11 0 -5 -11 -22 -25 -37
-13 -15 -38 -42 -55 -60 -16 -18 -30 -35 -30 -38 0 -3 -16 -21 -35 -41 -19
-20 -35 -40 -35 -45 0 -4 -7 -8 -15 -8 -8 0 -15 -4 -15 -10 0 -5 -14 -24 -30
-42 -72 -78 -80 -87 -80 -92 0 -3 -25 -30 -55 -61 -30 -30 -55 -57 -55 -60 0
-6 -39 -52 -82 -97 -16 -16 -28 -30 -28 -33 0 -2 -22 -27 -50 -57 -27 -29 -50
-56 -50 -60 0 -3 -20 -27 -45 -52 -25 -26 -45 -49 -45 -52 0 -2 -12 -18 -27
-33 -35 -37 -53 -59 -53 -65 0 -3 -19 -25 -42 -50 -24 -24 -54 -59 -68 -76
-14 -18 -37 -46 -52 -62 -16 -16 -28 -31 -28 -34 0 -3 -13 -19 -30 -36 -16
-16 -30 -33 -30 -36 0 -4 -24 -32 -53 -63 -68 -74 -158 -177 -176 -202 -8 -11
-44 -50 -80 -87 -36 -37 -84 -89 -106 -116 -22 -26 -52 -61 -67 -76 -16 -16
-28 -33 -28 -38 0 -6 -7 -10 -15 -10 -8 0 -15 -5 -15 -11 0 -7 -8 -19 -18 -28
-10 -9 -47 -50 -83 -91 -35 -41 -74 -85 -86 -96 -13 -12 -23 -26 -23 -33 0 -6
-7 -11 -15 -11 -8 0 -15 -5 -15 -11 0 -7 -10 -21 -22 -33 -13 -12 -39 -42 -59
-66 -20 -25 -64 -73 -98 -108 -34 -34 -61 -64 -61 -66 0 -4 -73 -87 -112 -127
-16 -16 -28 -31 -28 -33 0 -3 -19 -25 -43 -49 -23 -25 -54 -59 -67 -77 -14
-17 -37 -44 -52 -60 -16 -16 -28 -33 -28 -39 0 -6 -7 -11 -15 -11 -8 0 -15 -5
-15 -10 0 -6 -18 -30 -41 -53 -23 -23 -53 -58 -67 -77 -15 -19 -50 -59 -79
-87 -29 -29 -53 -56 -53 -59 0 -3 -12 -18 -27 -34 -16 -15 -39 -42 -53 -60
-14 -18 -44 -52 -67 -76 -24 -25 -43 -48 -43 -52 0 -5 -25 -34 -55 -66 -30
-31 -55 -59 -55 -62 0 -2 -17 -21 -37 -42 -21 -21 -65 -69 -98 -107 -33 -39
-77 -87 -97 -107 -21 -21 -38 -40 -38 -42 0 -2 -21 -26 -48 -53 -26 -26 -69
-75 -97 -108 -27 -33 -60 -70 -72 -82 -13 -12 -23 -25 -23 -28 0 -4 -6 -12
-12 -19 -7 -7 -24 -28 -38 -46 -14 -19 -44 -54 -67 -79 -24 -25 -43 -49 -43
-53 0 -4 -13 -21 -30 -38 -16 -17 -30 -35 -30 -40 0 -6 -4 -10 -9 -10 -5 0
-12 -12 -15 -26 -10 -40 -8 -7026 2 -7036 4 -4 231 -7 503 -6 l494 3 3 863 2
862 293 1 c160 1 1287 1 2502 0 1216 0 2222 2 2238 5 l27 6 0 926 0 927 -22
14 c-18 11 -104 12 -492 6 -259 -3 -479 -9 -488 -11 -17 -5 -18 -34 -18 -422
0 -229 -4 -422 -8 -428 -5 -8 -541 -11 -2019 -11 l-2013 1 0 1158 0 1158 2018
-2 2017 -3 3 -544 c2 -421 5 -547 15 -553 17 -11 979 -10 996 1 11 7 12 243 5
1492 -4 816 -8 1774 -9 2129 -1 355 -2 781 -3 948 l-2 302 -490 0 -490 0 -2
-1377 -3 -1378 -2016 -3 c-1645 -2 -2018 0 -2027 11 -7 9 -12 121 -12 335 l-2
323 25 32 c14 18 43 51 66 74 23 23 41 47 41 53 0 5 7 10 15 10 8 0 15 4 15 9
0 4 10 19 23 33 12 13 49 55 82 93 33 38 77 86 98 106 20 20 37 42 37 48 0 6
7 11 15 11 8 0 15 4 15 8 0 4 17 26 38 48 87 94 152 169 152 176 0 5 7 8 15 8
8 0 15 5 15 11 0 7 8 19 18 28 10 9 48 50 83 91 35 41 81 92 102 112 20 21 37
40 37 42 0 2 19 24 43 48 84 89 147 159 147 163 0 2 12 17 28 34 56 60 82 89
82 94 0 7 36 49 103 118 31 33 57 63 57 65 0 4 79 91 133 145 15 16 27 33 27
39 0 5 7 10 15 10 8 0 15 4 15 9 0 5 28 38 63 73 34 35 84 91 112 123 27 33
66 77 87 97 21 21 38 40 38 42 0 3 12 17 28 33 63 66 162 174 162 178 0 2 29
34 65 71 36 37 65 71 65 76 0 4 7 8 15 8 8 0 15 5 15 12 0 8 38 9 148 2 176
-11 988 -12 1262 -2 107 4 456 8 775 8 549 0 634 4 599 28 -7 4 -15 37 -19 75
-4 37 -11 70 -16 73 -5 3 -9 19 -9 35 0 16 -7 46 -15 66 -8 19 -15 46 -15 58
0 13 -7 36 -15 51 -8 16 -15 41 -15 57 0 15 -4 27 -10 27 -5 0 -10 8 -10 18 0
18 -25 97 -47 149 -7 17 -13 40 -13 52 0 12 -4 21 -9 21 -5 0 -12 18 -16 40
-4 22 -11 40 -16 40 -5 0 -9 13 -9 29 0 16 -7 34 -15 41 -8 7 -15 23 -15 36 0
12 -4 26 -10 29 -5 3 -10 13 -10 21 0 9 -13 45 -30 81 -16 35 -30 70 -30 77 0
6 -5 17 -11 23 -7 7 -20 36 -31 65 -10 29 -23 55 -28 56 -6 2 -10 11 -10 19 0
9 -12 41 -26 72 -14 31 -33 72 -41 91 -8 19 -19 42 -24 50 -5 8 -12 22 -15 30
-11 27 -39 85 -44 90 -3 3 -16 28 -29 55 -14 28 -27 52 -30 55 -4 3 -15 24
-25 48 -11 23 -22 42 -26 42 -5 0 -11 11 -14 25 -4 14 -11 25 -16 25 -6 0 -10
9 -10 20 0 10 -6 23 -12 27 -7 4 -22 24 -32 43 -11 19 -22 37 -25 40 -3 3 -15
23 -26 45 -11 22 -26 46 -32 53 -7 7 -13 19 -13 27 0 7 -4 15 -10 17 -5 2 -12
17 -15 33 -5 24 0 37 27 66 63 69 108 123 108 131 0 4 7 8 15 8 8 0 15 5 15
11 0 6 14 24 30 41 17 16 30 33 30 36 0 4 16 24 35 44 19 20 35 39 35 43 0 3
10 16 23 28 12 12 44 49 72 82 27 33 61 72 75 86 14 14 32 36 40 49 8 13 27
36 43 52 15 16 27 30 27 32 0 2 20 25 45 50 25 26 45 50 45 54 0 4 27 36 60
72 33 35 60 68 60 72 0 4 7 8 15 8 8 0 15 5 15 11 0 6 6 16 13 23 6 7 30 34
52 61 22 26 52 60 68 76 l27 28 -2 763 -3 763 -1175 3 c-646 1 -1185 0 -1196
-3 -12 -2 -48 -32 -80 -66 -33 -34 -71 -74 -86 -89 -16 -16 -28 -31 -28 -34 0
-3 -17 -23 -39 -45 -21 -21 -40 -43 -42 -48 -4 -9 -52 -67 -136 -162 -18 -20
-33 -41 -33 -46 0 -6 -11 -19 -25 -29 -14 -10 -25 -23 -25 -27 0 -8 -32 -48
-67 -85 -7 -7 -13 -15 -13 -19 0 -3 -9 -15 -19 -26 -19 -21 -61 -19 -61 2 0 5
-7 9 -15 9 -8 0 -15 4 -15 8 0 5 -18 18 -40 31 -22 12 -40 26 -40 32 0 5 -4 9
-10 9 -5 0 -38 17 -72 38 -35 21 -70 42 -78 45 -8 4 -37 20 -65 36 -27 16 -84
46 -125 67 -41 22 -77 42 -80 45 -3 3 -17 9 -32 13 -16 3 -28 11 -28 16 0 6
-8 10 -19 10 -10 0 -24 7 -31 15 -7 8 -17 15 -23 15 -18 0 -87 33 -87 42 0 4
-11 8 -24 8 -13 0 -29 7 -36 15 -7 8 -21 15 -31 15 -11 0 -19 5 -19 10 0 6 -6
10 -12 10 -7 0 -25 6 -39 14 -14 7 -37 16 -52 20 -15 3 -27 11 -27 16 0 6 -13
10 -30 10 -16 0 -30 4 -30 9 0 5 -13 12 -30 16 -16 4 -32 11 -35 16 -4 5 -14
9 -23 9 -9 0 -30 7 -46 15 -15 8 -38 15 -50 15 -11 0 -30 7 -40 15 -11 8 -30
15 -42 15 -13 0 -26 5 -29 10 -3 6 -15 10 -27 10 -11 0 -32 6 -46 14 -15 7
-54 21 -87 31 -33 10 -74 24 -92 31 -17 8 -45 14 -61 14 -17 0 -34 5 -37 10
-3 6 -24 10 -46 10 -21 0 -39 4 -39 10 0 5 -17 12 -37 15 -21 3 -46 10 -55 16
-10 5 -27 9 -39 9 -11 0 -35 6 -52 14 -18 8 -45 16 -62 19 -68 11 -151 30
-167 38 -10 5 -49 12 -88 15 -39 4 -73 11 -76 15 -3 5 -26 9 -52 9 -26 0 -63
5 -82 11 -36 12 -98 18 -345 38 -77 6 -189 16 -250 22 -113 10 -728 12 -738 2z
m818 -944 c17 -5 75 -14 130 -19 177 -18 239 -27 268 -39 16 -6 43 -11 60 -11
18 0 54 -7 81 -15 27 -8 64 -15 83 -15 18 0 33 -4 33 -8 0 -8 38 -18 155 -41
22 -4 50 -13 62 -19 12 -7 33 -12 47 -12 14 0 27 -4 30 -9 3 -5 26 -12 51 -15
25 -4 45 -11 45 -17 0 -5 8 -9 18 -9 10 0 27 -7 38 -15 10 -8 28 -15 39 -15
11 0 29 -7 39 -15 11 -8 27 -15 37 -15 9 0 30 -7 45 -15 16 -8 37 -15 47 -15
9 0 17 -4 17 -10 0 -5 7 -10 15 -10 8 0 31 -7 52 -16 78 -33 99 -42 135 -58
20 -9 41 -16 47 -16 6 0 11 -4 11 -10 0 -5 8 -10 18 -10 10 0 27 -7 38 -15 10
-8 26 -15 35 -15 9 0 22 -7 29 -15 7 -8 23 -15 35 -15 13 0 25 -3 27 -7 2 -5
35 -24 73 -43 39 -19 72 -37 75 -40 3 -3 26 -15 52 -28 26 -13 50 -27 53 -33
4 -5 15 -9 26 -9 10 0 19 -4 19 -9 0 -5 10 -13 22 -17 12 -3 33 -17 47 -30 14
-13 34 -27 44 -30 9 -3 17 -10 17 -15 0 -5 7 -9 15 -9 8 0 15 -4 15 -10 0 -5
5 -10 10 -10 6 0 19 -8 29 -17 36 -33 50 -43 59 -43 6 0 12 -9 15 -21 5 -20
-25 -62 -90 -126 -13 -12 -23 -24 -23 -27 0 -3 -29 -35 -65 -71 -36 -36 -65
-68 -65 -71 0 -6 -31 -41 -97 -111 -24 -24 -43 -46 -43 -49 0 -3 -6 -11 -12
-18 -7 -7 -31 -34 -53 -60 -22 -27 -53 -63 -70 -80 -16 -18 -41 -47 -55 -65
-29 -38 -51 -65 -88 -107 -15 -17 -43 -50 -62 -74 -19 -23 -47 -56 -62 -73
-16 -17 -28 -34 -28 -39 0 -4 -7 -8 -15 -8 -8 0 -15 -5 -15 -11 0 -6 -13 -24
-30 -41 -16 -16 -30 -33 -30 -36 0 -4 -29 -38 -65 -75 -36 -38 -65 -70 -65
-72 0 -3 -12 -17 -27 -33 -53 -55 -83 -92 -83 -102 0 -5 -7 -10 -15 -10 -8 0
-15 -3 -15 -8 0 -4 -20 -30 -46 -57 -25 -28 -62 -70 -82 -95 -20 -24 -54 -61
-74 -82 -21 -21 -38 -40 -38 -43 0 -2 -29 -34 -65 -70 -36 -37 -65 -70 -65
-73 0 -4 -25 -33 -55 -64 -30 -31 -55 -60 -55 -63 0 -3 -17 -22 -37 -43 -21
-21 -65 -69 -98 -107 -33 -38 -77 -86 -97 -106 -21 -20 -38 -42 -38 -48 0 -6
-7 -11 -15 -11 -8 0 -15 -5 -15 -10 0 -12 -10 -25 -52 -70 -16 -15 -28 -33
-28 -39 0 -6 -7 -11 -15 -11 -8 0 -15 -5 -15 -11 0 -6 -12 -23 -27 -38 -16
-15 -39 -41 -53 -58 -82 -99 -108 -129 -135 -159 -16 -18 -41 -47 -55 -65 -14
-18 -37 -45 -52 -60 -16 -15 -28 -30 -28 -34 0 -4 -6 -12 -12 -19 -7 -7 -31
-34 -53 -60 -22 -27 -50 -60 -63 -75 -13 -14 -40 -46 -60 -71 -20 -24 -47 -54
-59 -66 -13 -12 -23 -26 -23 -33 0 -6 -4 -11 -10 -11 -5 0 -20 -18 -32 -40
-14 -24 -30 -40 -41 -40 -16 0 -107 80 -107 94 0 3 -12 18 -27 34 -54 57 -113
124 -113 129 0 3 -21 26 -47 52 -27 26 -64 68 -84 92 -20 24 -53 61 -73 81
-20 20 -36 42 -36 48 0 5 -7 10 -15 10 -8 0 -15 5 -15 11 0 5 -11 22 -25 37
-13 15 -38 42 -55 60 -16 18 -30 35 -30 37 0 2 -12 17 -27 33 -26 27 -106 118
-163 184 -14 16 -41 46 -60 66 -20 20 -51 57 -70 82 -19 24 -52 62 -72 82 -21
21 -38 40 -38 43 0 2 -19 24 -42 49 -24 24 -54 59 -68 77 -13 17 -44 51 -67
76 -24 24 -43 47 -43 52 0 4 -11 14 -25 21 -14 7 -25 17 -25 22 0 9 -35 51
-82 99 -16 15 -28 30 -28 34 0 3 -11 16 -25 29 -14 13 -25 26 -25 29 0 4 -14
21 -30 39 -72 78 -80 87 -80 92 0 3 -20 26 -45 52 -25 25 -45 49 -45 53 0 4
-22 31 -50 60 -27 29 -50 54 -50 56 0 2 -12 17 -27 33 -16 15 -46 50 -68 76
-22 27 -59 69 -82 93 -24 24 -43 46 -43 49 0 3 -6 11 -12 18 -7 8 -35 39 -63
71 -27 32 -57 65 -65 74 -15 17 -43 50 -135 156 -27 32 -60 68 -72 81 -12 12
-43 48 -68 79 -26 31 -64 74 -86 96 -21 21 -39 42 -39 45 0 5 -15 22 -82 93
-16 16 -28 34 -28 40 0 6 -7 11 -15 11 -8 0 -15 5 -15 11 0 6 -21 32 -47 58
-104 102 -136 151 -98 151 8 0 15 4 15 9 0 5 10 13 23 17 12 4 24 10 27 13 5
6 88 62 105 71 6 3 35 21 65 41 30 20 62 39 70 42 8 4 38 21 65 37 28 17 61
35 75 41 13 6 27 13 30 17 3 4 25 16 50 27 25 11 47 22 50 25 11 11 192 100
205 100 7 0 15 3 17 8 4 10 67 42 83 42 7 0 28 8 47 17 61 30 68 33 85 33 10
0 27 7 37 15 11 8 30 15 42 15 13 0 25 4 28 9 4 5 24 12 46 16 22 4 42 11 45
15 3 5 26 12 50 16 25 3 48 10 51 15 3 5 17 9 32 9 15 0 36 6 47 14 11 7 38
16 60 19 72 10 145 26 157 34 15 9 122 32 188 39 25 3 59 12 77 20 17 8 53 14
79 14 26 0 61 4 78 9 58 18 201 34 366 41 213 9 826 1 865 -11z m-5049 -413
c8 -8 14 -17 14 -20 0 -3 36 -43 80 -88 44 -45 80 -83 80 -85 0 -2 12 -14 26
-26 l25 -22 -83 -87 c-125 -130 -203 -218 -206 -234 -2 -8 -10 -14 -18 -14 -8
0 -14 -5 -14 -11 0 -6 -12 -23 -27 -39 -16 -15 -39 -42 -53 -60 -14 -18 -31
-38 -37 -45 -7 -8 -13 -16 -13 -20 0 -10 -52 -55 -63 -55 -12 0 -157 149 -157
162 0 4 -7 8 -15 8 -8 0 -15 5 -15 11 0 6 -13 24 -30 41 -16 16 -30 33 -30 36
0 4 -23 30 -50 59 -28 29 -50 54 -50 57 0 5 -44 57 -82 98 -16 16 -28 31 -28
34 0 3 -11 15 -25 28 -14 13 -25 26 -25 29 0 4 -12 20 -27 36 -45 47 -83 95
-83 103 0 4 -7 8 -15 8 -8 0 -15 7 -15 15 0 8 -3 15 -7 15 -9 0 -53 62 -53 73
0 7 854 16 938 10 24 -1 50 -9 58 -17z m9427 -2496 c9 -11 17 -26 17 -34 0 -7
7 -19 15 -26 8 -7 15 -21 15 -31 0 -11 4 -19 9 -19 11 0 41 -56 41 -75 0 -7 7
-15 15 -19 8 -3 15 -15 15 -26 0 -11 4 -20 9 -20 5 0 12 -12 16 -27 3 -15 10
-30 13 -33 7 -5 33 -56 46 -90 3 -8 10 -22 15 -30 12 -20 28 -60 36 -87 4 -13
11 -23 16 -23 5 0 9 -11 9 -24 0 -13 6 -29 14 -35 8 -7 12 -20 9 -29 -4 -17
-32 -18 -449 -18 -397 0 -444 1 -444 15 1 17 29 55 98 127 23 25 42 47 42 49
0 2 13 18 29 34 16 16 42 47 57 68 16 21 39 47 52 59 12 12 22 26 22 33 0 6 7
11 15 11 8 0 15 6 15 14 0 8 4 16 8 18 4 2 23 23 42 48 19 25 40 49 46 55 15
15 64 83 64 89 0 3 8 15 18 25 23 25 53 26 75 1z m-8845 -3897 l2 -283 370 0
c284 0 371 3 377 13 4 6 10 134 13 282 l5 270 153 3 c94 1 160 -2 172 -8 19
-10 20 -22 20 -460 l0 -450 -1107 0 -1108 0 -17 43 c-10 23 -18 50 -18 59 0 9
-4 19 -9 23 -5 3 -13 20 -17 37 -3 18 -10 39 -15 48 -26 50 -39 86 -39 111 l0
29 443 2 442 3 5 280 c3 154 7 281 8 283 1 1 73 1 160 0 l157 -3 3 -282z
m2520 -1310 l-3 -168 -1592 -3 -1592 -2 -20 26 c-12 15 -21 33 -21 40 0 8 -4
14 -9 14 -5 0 -12 14 -16 30 -4 17 -11 30 -16 30 -5 0 -9 9 -9 20 0 11 -3 20
-8 20 -4 0 -18 24 -32 53 -13 28 -27 54 -30 57 -11 9 -19 38 -13 44 4 3 762 6
1685 6 l1678 0 -2 -167z m-438 -1367 c0 -541 -2 -604 -16 -610 -9 -3 -80 -6
-159 -6 -132 0 -145 2 -155 19 -6 13 -10 161 -10 413 0 216 -3 403 -6 416 l-6
22 -298 0 c-274 0 -298 -1 -306 -17 -4 -10 -9 -209 -10 -442 -2 -233 -6 -426
-8 -429 -3 -3 -21 7 -40 22 -19 14 -38 26 -43 26 -4 0 -20 11 -34 24 -14 13
-35 27 -47 30 -12 4 -22 11 -22 15 0 3 -15 15 -32 26 -18 10 -37 23 -43 27 -5
5 -23 19 -38 32 l-29 23 2 305 c0 218 -3 313 -11 332 l-12 26 -351 0 -351 0
-42 46 c-24 25 -43 49 -43 54 0 5 -3 10 -8 12 -4 2 -23 23 -42 48 -34 45 -59
75 -92 110 -20 22 -38 55 -38 69 0 8 341 11 1145 11 l1145 0 0 -604z"/>
<path d="M9370 14464 c-14 -7 -40 -14 -58 -14 -18 0 -40 -4 -50 -9 -9 -4 -35
-16 -57 -26 -22 -9 -47 -21 -55 -26 -8 -5 -21 -12 -28 -15 -36 -17 -192 -166
-192 -183 0 -6 -3 -11 -8 -11 -8 0 -9 -1 -64 -112 -21 -42 -38 -82 -38 -90 0
-7 -5 -19 -12 -26 -15 -15 -16 -365 -1 -384 6 -7 13 -30 17 -50 4 -21 11 -38
16 -38 4 0 11 -13 15 -30 4 -16 11 -30 16 -30 5 0 9 -9 9 -20 0 -11 7 -23 15
-26 8 -4 15 -10 15 -15 0 -6 5 -15 10 -22 6 -7 24 -28 40 -47 16 -19 30 -38
30 -42 0 -5 5 -8 11 -8 6 0 22 -13 36 -30 13 -16 31 -30 39 -30 8 0 14 -4 14
-10 0 -5 7 -10 15 -10 9 0 18 -7 21 -15 4 -8 14 -15 24 -15 10 0 23 -7 30 -15
7 -8 21 -15 31 -15 10 0 20 -4 23 -9 3 -5 22 -12 41 -15 19 -4 35 -11 35 -15
0 -5 26 -11 58 -15 31 -3 84 -10 117 -14 43 -7 72 -5 105 4 25 8 62 14 82 14
20 0 40 5 43 10 3 6 14 10 23 10 33 0 230 109 240 133 2 4 8 7 13 7 24 0 163
173 185 230 3 8 10 23 15 32 5 10 9 26 9 35 0 10 8 32 17 48 13 25 16 62 17
213 0 125 -4 186 -11 190 -6 4 -14 21 -18 37 -9 41 -62 147 -91 181 -13 15
-24 30 -24 34 0 9 -70 80 -109 110 -18 14 -41 33 -53 42 -11 10 -33 23 -49 30
-16 7 -29 16 -29 20 0 4 -18 11 -40 14 -22 4 -40 10 -40 15 0 5 -15 9 -32 9
-18 1 -44 7 -58 15 -34 20 -274 19 -310 -1z"/>
<path d="M12876 10352 l-89 -3 5 -212 c5 -219 12 -258 47 -251 9 2 283 5 609
7 382 2 596 7 602 13 7 7 9 91 8 230 l-3 219 -545 0 c-300 0 -585 -1 -634 -3z"/>
<path d="M12808 9476 c-16 -12 -18 -36 -18 -235 l0 -223 626 5 c346 3 631 10
635 14 5 5 8 106 7 224 l-3 214 -210 2 c-115 1 -392 5 -615 8 -333 4 -408 3
-422 -9z"/>
<path d="M11888 6004 c-2 -223 1 -348 7 -352 13 -9 2037 -14 2122 -6 l62 6 -5
326 c-3 180 -7 337 -10 350 l-4 22 -1085 0 -1084 0 -3 -346z"/>
</g>
</svg>
